# xmcd
#
# Track frame offsets:
#	150
#	8990
#	19282
#	29104
#
# Disc length: 520 seconds
#
# Revision: 0
# Processed by: cddbd v1.5.2PL0 Copyright (c) Steve Scherf et al.
# Submitted via: EZCDAudioConverter 2.0.5.1
#
DISCID=2e020604
DTITLE=The Ventures - French Sixties EP Collection - CD 7 - Action
DYEAR=2005
DGENRE=Instrumental
TTITLE0=Action
TTITLE1=Stop Action
TTITLE2=No Matter What Shape
TTITLE3=Little Bit Of Action
EXTD=
EXTT0=
EXTT1=
EXTT2=
EXTT3=
PLAYORDER=
